{
  "accessors": [
    {
      "bufferView": 2,
      "componentType": 5126,
      "count": 498,
      "max": [
        0.12173458188772202,
        0.19010291993618011,
        0.13085363805294037
      ],
      "min": [
        -0.12899409234523773,
        -0.011161686852574348,
        -0.12299798429012299
      ],
      "type": "VEC3"
    },
    {
      "bufferView": 2,
      "byteOffset": 5976,
      "componentType": 5126,
      "count": 498,
      "max": [
        0.993169903755188,
        1.0,
        0.9999754428863525
      ],
      "min": [
        -0.9897118806838989,
        -1.0,
        -1.0
      ],
      "type": "VEC3"
    },
    {
      "bufferView": 3,
      "componentType": 5126,
      "count": 498,
      "max": [
        0.9996878504753113,
        0.9956926107406616,
        0.9999867081642151,
        1.0
      ],
      "min": [
        -1.0,
        -0.9924015402793884,
        -0.9999997615814209,
        -1.0
      ],
      "type": "VEC4"
    },
    {
      "bufferView": 1,
      "componentType": 5126,
      "count": 498,
      "max": [
        0.9725686311721802,
        0.9888380765914917
      ],
      "min": [
        0.021012622863054276,
        0.014489978551864624
      ],
      "type": "VEC2"
    },
    {
      "bufferView": 0,
      "componentType": 5125,
      "count": 1908,
      "type": "SCALAR"
    },
    {
      "bufferView": 2,
      "byteOffset": 11952,
      "componentType": 5126,
      "count": 808,
      "max": [
        0.09415753185749054,
        0.22520573437213898,
        0.08735007792711258
      ],
      "min": [
        -0.08062447607517242,
        -0.01551101915538311,
        -0.09197737276554108
      ],
      "type": "VEC3"
    },
    {
      "bufferView": 2,
      "byteOffset": 21648,
      "componentType": 5126,
      "count": 808,
      "max": [
        0.9979414939880371,
        1.0,
        0.9990540146827698
      ],
      "min": [
        -0.9995816349983215,
        -1.0,
        -0.9938920140266418
      ],
      "type": "VEC3"
    },
    {
      "bufferView": 3,
      "byteOffset": 7968,
      "componentType": 5126,
      "count": 808,
      "max": [
        0.9959878325462341,
        0.9996817111968994,
        0.9977139234542847,
        1.0
      ],
      "min": [
        -0.9991450309753418,
        -0.9990297555923462,
        -0.9997490048408508,
        -1.0
      ],
      "type": "VEC4"
    },
    {
      "bufferView": 1,
      "byteOffset": 3984,
      "componentType": 5126,
      "count": 808,
      "max": [
        0.9725686311721802,
        0.9888380765914917
      ],
      "min": [
        0.021012622863054276,
        0.014489978551864624
      ],
      "type": "VEC2"
    },
    {
      "bufferView": 0,
      "byteOffset": 7632,
      "componentType": 5125,
      "count": 3156,
      "type": "SCALAR"
    },
    {
      "bufferView": 2,
      "byteOffset": 31344,
      "componentType": 5126,
      "count": 1118,
      "max": [
        0.09232527017593384,
        0.22520573437213898,
        0.08478283882141113
      ],
      "min": [
        -0.08245670050382614,
        -0.014525734819471836,
        -0.09454458951950073
      ],
      "type": "VEC3"
    },
    {
      "bufferView": 2,
      "byteOffset": 44760,
      "componentType": 5126,
      "count": 1118,
      "max": [
        0.9983601570129395,
        1.0,
        0.9990541338920593
      ],
      "min": [
        -0.9996436834335327,
        -1.0,
        -0.9938920140266418
      ],
      "type": "VEC3"
    },
    {
      "bufferView": 3,
      "byteOffset": 20896,
      "componentType": 5126,
      "count": 1118,
      "max": [
        0.9989699125289917,
        0.9998319745063782,
        0.9977140426635742,
        1.0
      ],
      "min": [
        -0.999144971370697,
        -0.9993441700935364,
        -0.9997490644454956,
        -1.0
      ],
      "type": "VEC4"
    },
    {
      "bufferView": 1,
      "byteOffset": 10448,
      "componentType": 5126,
      "count": 1118,
      "max": [
        0.9725686311721802,
        0.9888380765914917
      ],
      "min": [
        0.021012622863054276,
        0.014489978551864624
      ],
      "type": "VEC2"
    },
    {
      "bufferView": 0,
      "byteOffset": 20256,
      "componentType": 5125,
      "count": 4404,
      "type": "SCALAR"
    }
  ],
  "asset": {
    "extras": {
      "author": "Pixel Life (https://sketchfab.com/pixellife)",
      "license": "CC-BY-4.0 (http://creativecommons.org/licenses/by/4.0/)",
      "source": "https://sketchfab.com/3d-models/dandelion-blossom-flower-game-ready-asset-c09331338f7745a980865098c4c7da6e",
      "title": "Dandelion Blossom Flower (game ready asset)"
    },
    "generator": "Sketchfab-16.59.0",
    "version": "2.0"
  },
  "bufferViews": [
    {
      "buffer": 0,
      "byteLength": 37872,
      "name": "floatBufferViews",
      "target": 34963
    },
    {
      "buffer": 0,
      "byteLength": 19392,
      "byteOffset": 37872,
      "byteStride": 8,
      "name": "floatBufferViews",
      "target": 34962
    },
    {
      "buffer": 0,
      "byteLength": 58176,
      "byteOffset": 57264,
      "byteStride": 12,
      "name": "floatBufferViews",
      "target": 34962
    },
    {
      "buffer": 0,
      "byteLength": 38784,
      "byteOffset": 115440,
      "byteStride": 16,
      "name": "floatBufferViews",
      "target": 34962
    }
  ],
  "buffers": [
    {
      "byteLength": 154224,
      "uri": "scene.bin"
    }
  ],
  "extensionsUsed": [
    "KHR_materials_transmission"
  ],
  "images": [
    {
      "uri": "textures/Dandelion_baseColor.png"
    },
    {
      "uri": "textures/Dandelion_metallicRoughness.png"
    },
    {
      "uri": "textures/Dandelion_normal.jpeg"
    },
    {
      "uri": "textures/Dandelion_transmission.png"
    }
  ],
  "materials": [
    {
      "alphaCutoff": 0.5462261596680456,
      "alphaMode": "MASK",
      "doubleSided": true,
      "extensions": {
        "KHR_materials_transmission": {
          "transmissionFactor": 1.0,
          "transmissionTexture": {
            "index": 3
          }
        }
      },
      "name": "Dandelion",
      "normalTexture": {
        "index": 2
      },
      "pbrMetallicRoughness": {
        "baseColorTexture": {
          "index": 0
        },
        "metallicRoughnessTexture": {
          "index": 1
        }
      }
    }
  ],
  "meshes": [
    {
      "name": "Object_0",
      "primitives": [
        {
          "attributes": {
            "NORMAL": 1,
            "POSITION": 0,
            "TANGENT": 2,
            "TEXCOORD_0": 3
          },
          "indices": 4,
          "material": 0,
          "mode": 4
        }
      ]
    },
    {
      "name": "Object_1",
      "primitives": [
        {
          "attributes": {
            "NORMAL": 6,
            "POSITION": 5,
            "TANGENT": 7,
            "TEXCOORD_0": 8
          },
          "indices": 9,
          "material": 0,
          "mode": 4
        }
      ]
    },
    {
      "name": "Object_2",
      "primitives": [
        {
          "attributes": {
            "NORMAL": 11,
            "POSITION": 10,
            "TANGENT": 12,
            "TEXCOORD_0": 13
          },
          "indices": 14,
          "material": 0,
          "mode": 4
        }
      ]
    }
  ],
  "nodes": [
    {
      "children": [
        1
      ],
      "matrix": [
        1.0,
        0.0,
        0.0,
        0.0,
        0.0,
        2.220446049250313e-16,
        -1.0,
        0.0,
        0.0,
        1.0,
        2.220446049250313e-16,
        0.0,
        0.0,
        0.0,
        0.0,
        1.0
      ],
      "name": "Sketchfab_model"
    },
    {
      "children": [
        2
      ],
      "name": "root"
    },
    {
      "children": [
        3,
        5,
        7
      ],
      "matrix": [
        1.0,
        0.0,
        0.0,
        0.0,
        0.0,
        2.220446049250313e-16,
        1.0,
        0.0,
        0.0,
        -1.0,
        2.220446049250313e-16,
        0.0,
        0.0,
        0.0,
        0.0,
        1.0
      ],
      "name": "GLTF_SceneRootNode"
    },
    {
      "children": [
        4
      ],
      "matrix": [
        1.0,
        0.0,
        0.0,
        0.0,
        0.0,
        1.0,
        0.0,
        0.0,
        0.0,
        0.0,
        1.0,
        0.0,
        -0.19999998807907104,
        0.0,
        0.0,
        1.0
      ],
      "name": "Dandelion1_0"
    },
    {
      "mesh": 0,
      "name": "Object_4"
    },
    {
      "children": [
        6
      ],
      "name": "Dandelion2_1"
    },
    {
      "mesh": 1,
      "name": "Object_6"
    },
    {
      "children": [
        8
      ],
      "matrix": [
        1.0,
        0.0,
        0.0,
        0.0,
        0.0,
        1.0,
        0.0,
        0.0,
        0.0,
        0.0,
        1.0,
        0.0,
        0.20999997854232788,
        0.0,
        0.0,
        1.0
      ],
      "name": "Dandelion3_2"
    },
    {
      "mesh": 2,
      "name": "Object_8"
    }
  ],
  "samplers": [
    {
      "magFilter": 9729,
      "minFilter": 9987,
      "wrapS": 10497,
      "wrapT": 10497
    }
  ],
  "scene": 0,
  "scenes": [
    {
      "name": "Sketchfab_Scene",
      "nodes": [
        0
      ]
    }
  ],
  "textures": [
    {
      "sampler": 0,
      "source": 0
    },
    {
      "sampler": 0,
      "source": 1
    },
    {
      "sampler": 0,
      "source": 2
    },
    {
      "sampler": 0,
      "source": 3
    }
  ]
}
